{"title":"Stargate Universe 1x03 [HDTV + AC3 + Spanish]","uid":5587590,"size":460487709,"categoryP":"video","categoryS":"hd___tv_shows","magnet":"?xt=urn:btih:2d61b1854a8dab075705a3a4b7dde764e1279947&amp;dn=Stargate+Universe+1x03+%5BHDTV+%2B+AC3+%2B+Spanish%5D&amp;tr=udp%3A%2F%2Ftracker.openbittorrent.com%3A80&amp;tr=udp%3A%2F%2Fopen.demonii.com%3A1337&amp;tr=udp%3A%2F%2Ftracker.coppersurfer.tk%3A6969&amp;tr=udp%3A%2F%2Fexodus.desync.com%3A6969","seeders":0,"leechers":1,"uploader":"fleqii","files":1,"time":1274752455,"description":"C:UsersJoelContactsStargate Universe 1x03 [AC3 + Spanish].mkv\n   General\n      Complete name : C:UsersJoelContactsStargate Universe 1x03 [AC3 + Spanish].mkv\n      Format : Matroska\n      File size : 439 MiB\n      Duration : 40mn 52s\n      Overall bit rate : 1 502 Kbps\n      Encoded date : UTC 2010-05-24 22:52:38\n      Writing application : VirtualDubMod 1.5.10.2 (build 2540/release)\n      Writing library : libebml-0.7.5 &amp; libmatroska-0.7.7\n   Video #1\n      ID : 1\n      Format : MPEG-4 Visual\n      Format profile : Simple@L0\n      Format settings, BVOP : No\n      Format settings, QPel : No\n      Format settings, GMC : No warppoints\n      Format settings, Matrix : Default (H.263)\n      Codec ID : XVID\n      Codec ID/Hint : XviD\n      Duration : 40mn 52s\n      Bit rate : 1 024 Kbps\n      Width : 640 pixels\n      Height : 352 pixels\n      Display aspect ratio : 16:9\n      Frame rate : 25.000 fps\n      Original frame rate : 23.976 fps\n      Resolution : 24 bits\n      Colorimetry : 4:2:0\n      Scan type : Progressive\n      Bits/(Pixel*Frame) : 0.182\n      Stream size : 299 MiB (68%)\n      Writing library : XviD 1.0.3 (UTC 2004-12-20)\n   Audio #2\n      ID : 2\n      Format : AC-3\n      Format/Info : Audio Coding 3\n      Codec ID : A_AC3\n      Duration : 40mn 52s\n      Bit rate mode : Constant\n      Bit rate : 448 Kbps\n      Channel(s) : 2 channels\n      Channel positions : L R\n      Sampling rate : 48.0 KHz\n      Stream size : 131 MiB (30%)","torrent":{"xt":"urn:btih:2d61b1854a8dab075705a3a4b7dde764e1279947","amp;dn":"Stargate+Universe+1x03+%5BHDTV+%2B+AC3+%2B+Spanish%5D","amp;tr":["udp%3A%2F%2Ftracker.openbittorrent.com%3A80","udp%3A%2F%2Fopen.demonii.com%3A1337","udp%3A%2F%2Ftracker.coppersurfer.tk%3A6969","udp%3A%2F%2Fexodus.desync.com%3A6969"],"infoHash":"2d61b1854a8dab075705a3a4b7dde764e1279947","infoHashBuffer":{"type":"Buffer","data":[45,97,177,133,74,141,171,7,87,5,163,164,183,221,231,100,225,39,153,71]},"announce":[],"urlList":[]}}